<svg version="1.0" xmlns="http://www.w3.org/2000/svg"
     xmlns:xlink="http://www.w3.org/1999/xlink" width="500px" height="368px" viewBox="0 0 340.000000 250.000000" preserveAspectRatio="xMidYMid meet" color-interpolation-filters="sRGB" class="el-tooltip" style="margin: auto;">

    <rect data-v-57bd52ca="" x="0" y="0" width="100%" height="100%" fill="url(https://www.logosc.cn/edit#100)" fill-opacity="1"></rect>


    <g data-v-57bd52ca="" fill="#fff" class="bordersvg b-d1" transform="translate(90.66212463378906,77.26750183105469)"><path fill-opacity="0" stroke="#fff" stroke-width="3" d="M 85.46499633789062 15.799999237060547 A 47.73249816894531 47.73249816894531 0 1 0 85.46499633789062 79.66499710083008"></path> <g transform="translate(10,15.799999237060547)"><g><rect stroke-width="2" class="i-icon-bg" x="0" y="0" width="150.92999267578125" height="63.86499786376953" fill-opacity="0"></rect> <!----> <!----> </g> <g transform="translate(10,3)"><g class="tp-name" transform="translate(4.431888580322266,0)"><g><path transform="translate(-2.65625, 29.375)" d="M15.94-5.94L15.94-5.94L15.94-5.94Q15.47-0.16 9.38 0.16L9.38 0.16L9.38 0.16Q3.13-0.31 2.66-5.94L2.66-5.94L2.66-5.94Q2.81-9.69 6.25-11.56L6.25-11.56L6.25-11.56Q4.69-13.13 4.69-15.31L4.69-15.31L4.69-15.31Q5.16-19.53 9.38-20L9.38-20L9.38-20Q13.59-19.53 14.06-15.31L14.06-15.31L14.06-15.31Q14.06-12.81 12.34-11.72L12.34-11.72L12.34-11.72Q15.78-9.84 15.94-5.94ZM12.19-7.34L12.19-7.34L12.19-7.34Q11.88-10 9.38-10.31L9.38-10.31L9.38-10.31Q6.88-10 6.56-7.34L6.56-7.34L6.56-7.34Q6.88-4.84 9.38-4.53L9.38-4.53L9.38-4.53Q12.03-4.84 12.19-7.34ZM11.72-15.16L11.72-15.16L11.72-15.16Q11.56-17.34 9.38-17.50L9.38-17.50L9.38-17.50Q7.34-17.34 7.03-15.16L7.03-15.16L7.03-15.16Q7.34-13.13 9.38-12.81L9.38-12.81L9.38-12.81Q11.56-13.13 11.72-15.16ZM24.84-4.22L24.84-4.22L24.84-10.94L24.84-10.94Q24.53-14.84 22.34-13.91L22.34-13.91L22.34-13.91Q22.97-18.59 28.91-19.53L28.91-19.53L28.91-19.53Q29.84-19.53 30.63-19.06L30.63-19.06L30.63-19.06Q29.53-17.97 29.69-15.31L29.69-15.31L29.69-5L29.69-5Q29.69-4.38 29.84-3.44L29.84-3.44L29.84-3.44Q30-2.50 30-2.03L30-2.03L30-2.03Q29.84 0.16 27.19 0.31L27.19 0.31L27.19 0.31Q24.53 0.16 24.38-1.41L24.38-1.41L24.38-1.41Q24.53-3.13 24.84-4.22ZM50.16-5.94L50.16-5.94L50.16-5.94Q49.69-0.16 43.59 0.16L43.59 0.16L43.59 0.16Q37.34-0.31 36.88-5.94L36.88-5.94L36.88-5.94Q37.03-9.69 40.47-11.56L40.47-11.56L40.47-11.56Q38.91-13.13 38.91-15.31L38.91-15.31L38.91-15.31Q39.38-19.53 43.59-20L43.59-20L43.59-20Q47.81-19.53 48.28-15.31L48.28-15.31L48.28-15.31Q48.28-12.81 46.56-11.72L46.56-11.72L46.56-11.72Q50-9.84 50.16-5.94ZM46.41-7.34L46.41-7.34L46.41-7.34Q46.09-10 43.59-10.31L43.59-10.31L43.59-10.31Q41.09-10 40.78-7.34L40.78-7.34L40.78-7.34Q41.09-4.84 43.59-4.53L43.59-4.53L43.59-4.53Q46.25-4.84 46.41-7.34ZM45.94-15.16L45.94-15.16L45.94-15.16Q45.78-17.34 43.59-17.50L43.59-17.50L43.59-17.50Q41.56-17.34 41.25-15.16L41.25-15.16L41.25-15.16Q41.56-13.13 43.59-12.81L43.59-12.81L43.59-12.81Q45.78-13.13 45.94-15.16ZM81.41-26.41L81.41-26.41L81.41-26.41Q86.56-26.41 86.41-24.06L86.41-24.06L86.41-24.06Q86.56-21.09 82.19-21.25L82.19-21.25L82.19-21.25Q78.75-21.25 78.75-20.47L78.75-20.47L78.75-20.47Q78.91-18.75 82.81-18.75L82.81-18.75L82.81-18.75Q87.97-18.44 88.75-15L88.75-15L88.75-15Q88.59-13.44 86.56-12.81L86.56-12.81L86.56-12.81Q85.47-12.66 84.38-11.56L84.38-11.56L84.38-11.56Q82.81-8.91 82.50-3.13L82.50-3.13L82.50-3.13Q82.50-1.25 83.13 0.16L83.13 0.16L83.13 0.16Q83.59 2.03 83.59 2.81L83.59 2.81L83.59 2.81Q83.44 5 81.88 5.16L81.88 5.16L81.88 5.16Q80.47 5.16 80.47 2.19L80.47 2.19L80.47 2.19Q80.47-0.78 80.63-1.88L80.63-1.88L80.63-1.88Q80.63-2.66 80.63-4.06L80.63-4.06L80.63-4.06Q80.78-5.94 80.78-7.34L80.78-7.34L80.78-7.34Q80.78-10.63 79.22-10.47L79.22-10.47L79.22-10.47Q78.28-10.47 77.66-9.84L77.66-9.84L77.66-9.84Q76.41-8.44 75.78-4.53L75.78-4.53L75.78-4.53Q75.63-2.81 74.38-2.81L74.38-2.81L74.38-2.81Q72.97-2.97 72.81-5.31L72.81-5.31L72.81-5.31Q72.97-8.91 73.44-11.56L73.44-11.56L73.44-11.56Q73.44-11.88 73.59-12.50L73.59-12.50L73.59-12.50Q73.75-15 73.75-17.03L73.75-17.03L73.75-17.03Q73.75-18.44 72.97-20.78L72.97-20.78L72.97-20.78Q72.50-22.03 72.50-22.66L72.50-22.66L72.50-22.66Q73.44-25.94 81.41-26.41ZM68.75-23.91L68.75-23.91L68.75-23.91Q71.56-23.75 71.72-21.41L71.72-21.41L71.72-21.41Q71.72-20.31 70.63-19.69L70.63-19.69L70.63-19.69Q70-19.22 70.16-18.75L70.16-18.75L70.16-18.75Q70.16-18.13 70.94-17.97L70.94-17.97L70.94-17.97Q73.28-17.50 73.28-16.09L73.28-16.09L73.28-16.09Q73.44-13.91 70-13.59L70-13.59L70-13.59Q69.06-13.28 69.06-12.66L69.06-12.66L69.06-12.66Q69.06-11.88 70-11.88L70-11.88L70-11.88Q72.34-11.88 72.19-10.47L72.19-10.47L72.19-10.47Q72.19-8.59 70.16-7.97L70.16-7.97L70.16-7.97Q68.28-7.50 68.44-5.63L68.44-5.63L68.44-5.63Q68.44-0.47 65.94-0.47L65.94-0.47L65.94-0.47Q63.59-0.31 63.59-5.31L63.59-5.31L63.59-5.31Q63.59-7.50 62.19-7.34L62.19-7.34L62.19-7.34Q61.25-7.34 60.16-6.56L60.16-6.56L60.16-6.56Q60.16-6.72 60-6.56L60-6.56L60-6.56Q59.38-5.94 58.44-5.94L58.44-5.94L58.44-5.94Q56.72-6.09 56.56-7.34L56.56-7.34L56.56-7.34Q56.56-8.28 59.38-9.38L59.38-9.38L59.38-9.38Q63.13-10.47 62.81-11.25L62.81-11.25L62.81-11.25Q62.81-12.66 60.47-12.03L60.47-12.03L60.47-12.03Q60-12.03 59.38-11.88L59.38-11.88L59.38-11.88Q58.44-11.72 57.34-11.72L57.34-11.72L57.34-11.72Q55.31-11.88 55.31-13.28L55.31-13.28L55.31-13.28Q55.16-15.16 60.63-16.41L60.63-16.41L60.63-16.41Q62.19-16.88 62.19-17.50L62.19-17.50L62.19-17.50Q62.03-18.44 60.94-18.44L60.94-18.44L60.94-18.44Q59.06-18.59 58.91-19.84L58.91-19.84L58.91-19.84Q60.47-23.28 68.75-23.91ZM67.66-29.22L67.66-29.22L67.66-29.22Q70.94-29.06 71.25-26.88L71.25-26.88L71.25-26.88Q71.56-24.22 62.50-24.22L62.50-24.22L62.50-24.22Q60.31-24.22 60.47-25.31L60.47-25.31L60.47-25.31Q62.03-28.91 67.66-29.22ZM58.59-5.31L58.59-5.31L58.59-5.31Q59.22-5.31 59.22-4.84L59.22-4.84L59.22-4.84Q59.38-4.22 60.31-3.59L60.31-3.59L60.31-3.59Q60.31-3.59 60.47-3.44L60.47-3.44L60.47-3.44Q61.25-2.81 61.25-2.34L61.25-2.34L61.25-2.34Q61.25-1.25 60.16-1.25L60.16-1.25L60.16-1.25Q59.38-1.25 58.91-1.56L58.91-1.56L58.91-1.56Q57.97-3.13 57.81-4.53L57.81-4.53L57.81-4.53Q57.81-5.47 58.59-5.31ZM70.31-7.34L70.31-7.34L70.31-7.34Q71.41-7.03 71.72-4.22L71.72-4.22L71.72-4.22Q71.56-3.13 70.47-2.97L70.47-2.97L70.47-2.97Q69.38-2.97 69.38-4.84L69.38-4.84L69.38-4.84Q69.53-7.03 70.31-7.34ZM65.94-19.06L65.94-19.06L65.94-19.06Q64.06-18.91 63.91-17.81L63.91-17.81L63.91-17.81Q63.75-17.19 65-17.19L65-17.19L65-17.19Q66.72-17.19 66.88-18.28L66.88-18.28L66.88-18.28Q67.03-19.22 65.94-19.06ZM118.59-18.75L118.59-18.75L118.59-18.75Q118.75-17.50 117.81-16.41L117.81-16.41L117.81-16.41Q115.94-14.06 117.50-12.03L117.50-12.03L117.50-12.03Q118.59-10.47 117.66-8.75L117.66-8.75L117.66-8.75Q116.41-6.88 116.09-5L116.09-5L116.09-5Q115.63-2.81 113.59-2.81L113.59-2.81L113.59-2.81Q111.88-3.13 111.41-5.31L111.41-5.31L111.41-5.31Q110.94-6.72 109.06-5.94L109.06-5.94L109.06-5.94Q105.16-4.53 104.38-5.78L104.38-5.78L104.38-5.78Q103.13-6.88 106.72-9.22L106.72-9.22L106.72-9.22Q108.28-10.31 109.06-13.28L109.06-13.28L109.06-13.28Q109.53-16.25 108.28-16.25L108.28-16.25L108.28-16.25Q106.41-16.56 106.72-17.66L106.72-17.66L106.72-17.66Q107.03-18.59 107.97-19.38L107.97-19.38L107.97-19.38Q111.88-22.34 116.72-20.94L116.72-20.94L116.72-20.94Q118.28-20.31 118.59-18.75ZM123.44 1.88L123.44 1.88L123.44 1.88Q124.22 3.91 122.66 4.53L122.66 4.53L122.66 4.53Q120.78 4.84 120.63 2.50L120.63 2.50L120.63 2.50Q120.16-3.59 120.78-15L120.78-15L120.78-15Q120.78-15.94 120.78-16.56L120.78-16.56L120.78-16.56Q120.94-20.63 119.06-21.72L119.06-21.72L119.06-21.72Q116.09-24.06 110.78-22.97L110.78-22.97L110.78-22.97Q107.19-22.03 107.03-24.38L107.03-24.38L107.03-24.38Q106.88-25.94 109.69-27.03L109.69-27.03L109.69-27.03Q114.38-28.91 119.53-29.38L119.53-29.38L119.53-29.38Q125.16-29.22 124.69-22.81L124.69-22.81L124.69-22.81Q121.88-10.16 122.19-2.66L122.19-2.66L122.19-2.66Q122.66 0.16 123.44 1.88ZM101.41-0.78L101.41-0.78L101.41-0.78Q100-0.78 99.38-2.97L99.38-2.97L99.38-2.97Q97.81-7.66 98.44-15.47L98.44-15.47L98.44-15.47Q99.22-20.16 102.03-20.16L102.03-20.16L102.03-20.16Q105-19.38 104.06-14.84L104.06-14.84L104.06-14.84Q102.81-10.63 102.50-6.25L102.50-6.25L102.50-6.25Q102.50-4.84 102.81-3.59L102.81-3.59L102.81-3.59Q103.44-0.78 101.41-0.78ZM101.09-27.66L101.09-27.66L101.09-27.66Q101.72-27.81 102.34-26.88L102.34-26.88L102.34-26.88Q102.81-25.94 103.59-25L103.59-25L103.59-25Q104.53-23.75 105.47-23.59L105.47-23.59L105.47-23.59Q107.34-22.66 106.56-20.63L106.56-20.63L106.56-20.63Q105-18.91 103.13-20.78L103.13-20.78L103.13-20.78Q101.41-22.81 100.63-25.63L100.63-25.63L100.63-25.63Q100-27.34 101.09-27.66ZM113.13-14.22L113.13-14.22L113.13-14.22Q112.03-13.91 112.03-13.13L112.03-13.13L112.03-13.13Q112.34-12.50 113.75-13.13L113.75-13.13L113.75-13.13Q114.69-13.75 114.69-14.38L114.69-14.38L114.69-14.38Q114.53-14.84 113.13-14.22ZM112.97-11.56L112.97-11.56L112.97-11.56Q111.88-11.09 111.88-10.63L111.88-10.63L111.88-10.63Q111.88-10.16 113.28-10.31L113.28-10.31L113.28-10.31Q114.69-10.78 114.53-11.25L114.53-11.25L114.53-11.25Q114.53-12.19 112.97-11.56ZM113.13-16.56L113.13-16.56L113.13-16.56Q111.88-16.09 112.03-15.47L112.03-15.47L112.03-15.47Q112.34-15 113.59-15.63L113.59-15.63L113.59-15.63Q114.38-15.94 114.38-16.72L114.38-16.72L114.38-16.72Q114.38-17.03 113.13-16.56Z"></path></g> <!----> <!----> <!----> <!----> <!----> <!----> <!----></g> <g class="tp-slogan" transform="translate(0,41.540000915527344)"><!----> <!----> <!----> <g mask="url(#2b6a2d5974de62dcc579ff7618d091ec)"><g><rect stroke-width="2" class="i-icon-bg" x="0" y="0" width="130.93000030517578" height="16.320000648498535" fill-opacity="1"></rect> <!----> <!----> </g> <g transform="translate(5,3)"><g fill="#f9886c"><path transform="translate(-0.264, 8.676)" d="M3.95 0.01L5.44-8.28L7.08-8.28L5.59 0.01L3.95 0.01ZM7.64-8.28L9.29-8.28L10.76 0.01L9.12 0.01L7.64-8.28ZM0.26-2.10L1.80-4.27L1.80-6.76L0.54-6.76L0.54-7.93L1.80-7.93L1.80-8.65L3.44-8.65L3.44-7.93L4.34-7.93L4.34-6.76L3.44-6.76L3.44-5.74L4.82-5.74L3.44-3.79L3.44-1.13L3.44-1.13Q3.44-0.89 3.35-0.68L3.35-0.68L3.35-0.68Q3.26-0.48 3.11-0.33L3.11-0.33L3.11-0.33Q2.96-0.18 2.75-0.09L2.75-0.09L2.75-0.09Q2.54 0 2.32 0L2.32 0L0.78 0L1.24-1.02L1.43-1.02L1.43-1.02Q1.58-1.02 1.69-1.13L1.69-1.13L1.69-1.13Q1.80-1.24 1.80-1.40L1.80-1.40L1.80-2.10L0.26-2.10ZM21.58-4.91L21.58-3.73L11.54-3.73L11.54-4.91L21.58-4.91ZM26.03 0.01L27.52-8.28L29.16-8.28L27.67 0.01L26.03 0.01ZM29.72-8.28L31.37-8.28L32.84 0.01L31.20 0.01L29.72-8.28ZM22.34-2.10L23.88-4.27L23.88-6.76L22.62-6.76L22.62-7.93L23.88-7.93L23.88-8.65L25.52-8.65L25.52-7.93L26.42-7.93L26.42-6.76L25.52-6.76L25.52-5.74L26.90-5.74L25.52-3.79L25.52-1.13L25.52-1.13Q25.52-0.89 25.43-0.68L25.43-0.68L25.43-0.68Q25.34-0.48 25.19-0.33L25.19-0.33L25.19-0.33Q25.04-0.18 24.83-0.09L24.83-0.09L24.83-0.09Q24.62 0 24.40 0L24.40 0L22.86 0L23.32-1.02L23.51-1.02L23.51-1.02Q23.66-1.02 23.77-1.13L23.77-1.13L23.77-1.13Q23.88-1.24 23.88-1.40L23.88-1.40L23.88-2.10L22.34-2.10ZM33.38-7.10L33.38-8.29L34.87-8.29L34.72-8.65L36.67-8.65L36.83-8.29L38.70-8.29L38.70-7.10L33.38-7.10ZM33.38-3.85L35.23-3.85L35.23-4.58L33.38-4.58L33.38-5.77L34.01-5.77L33.58-6.79L35.12-6.79L35.56-5.77L36.54-5.77L36.96-6.79L38.51-6.79L38.08-5.77L38.70-5.77L38.70-4.58L36.86-4.58L36.86-3.85L38.70-3.85L38.70-2.66L36.86-2.66L36.86-1.13L36.86-1.13Q36.86-0.90 36.77-0.70L36.77-0.70L36.77-0.70Q36.68-0.49 36.53-0.34L36.53-0.34L36.53-0.34Q36.38-0.18 36.17-0.09L36.17-0.09L36.17-0.09Q35.96 0 35.74 0L35.74 0L34.68 0L34.99-0.83L35.04-0.83L35.04-0.83Q35.23-0.83 35.23-1.02L35.23-1.02L35.23-2.66L33.38-2.66L33.38-3.85ZM34.64 0L33.37 0L33.62-2.21L34.90-2.21L34.64 0ZM37.44 0L37.19-2.21L38.45-2.21L38.70 0L37.44 0ZM43.91-7.62L40.88-7.45L40.88-6.28L43.91-6.28L43.91-5.26L43.50-5.26L43.50-0.01L41.88-0.01L41.88-5.26L40.88-5.26L40.88-1.02L40.57 0L38.95 0L39.26-1.02L39.26-7.36L39.26-7.93L39.26-8.38L43.91-8.64L43.91-7.62ZM51.89-0.64L50.33-0.64L50.33-1.45L46.63-1.28L46.63-2.15L47.00-2.16L47.00-5.52L46.63-5.52L46.63-6.38L47.00-6.38L48.56-6.38L50.33-6.38L51.89-6.38L52.33-6.38L52.33-5.52L51.89-5.52L51.89-2.39L52.33-2.41L52.33-1.55L51.89-1.52L51.89-0.64ZM48.56-4.15L48.56-3.65L50.33-3.65L50.33-4.15L48.56-4.15ZM50.33-5.52L48.56-5.52L48.56-5.02L50.33-5.02L50.33-5.52ZM48.56-2.23L50.33-2.32L50.33-2.78L48.56-2.78L48.56-2.23ZM46.94-6.95L46.18-8.68L48.14-8.68L48.90-6.95L46.94-6.95ZM54.85-8.47L54.85-1.30L54.85-1.30Q54.85-1.02 54.75-0.78L54.75-0.78L54.75-0.78Q54.65-0.54 54.47-0.36L54.47-0.36L54.47-0.36Q54.29-0.18 54.05-0.08L54.05-0.08L54.05-0.08Q53.81 0.02 53.53 0.02L53.53 0.02L51.97 0.02L52.43-1.01L52.81-1.01L52.81-1.01Q52.97-1.01 53.08-1.12L53.08-1.12L53.08-1.12Q53.20-1.22 53.20-1.39L53.20-1.39L53.20-7.30L49.19-7.30L49.19-8.47L54.85-8.47ZM44.50 0.02L44.50-7.67L46.16-7.67L46.16 0.02L44.50 0.02ZM57.17-1.56L58.62-1.56L58.62-0.17L57.70 1.64L56.96 1.64L57.70 0L57.17 0L57.17-1.56ZM70.19 0.01L71.68-8.28L73.32-8.28L71.83 0.01L70.19 0.01ZM73.88-8.28L75.53-8.28L77.00 0.01L75.36 0.01L73.88-8.28ZM66.50-2.10L68.04-4.27L68.04-6.76L66.78-6.76L66.78-7.93L68.04-7.93L68.04-8.65L69.68-8.65L69.68-7.93L70.58-7.93L70.58-6.76L69.68-6.76L69.68-5.74L71.06-5.74L69.68-3.79L69.68-1.13L69.68-1.13Q69.68-0.89 69.59-0.68L69.59-0.68L69.59-0.68Q69.50-0.48 69.35-0.33L69.35-0.33L69.35-0.33Q69.20-0.18 68.99-0.09L68.99-0.09L68.99-0.09Q68.78 0 68.56 0L68.56 0L67.02 0L67.48-1.02L67.67-1.02L67.67-1.02Q67.82-1.02 67.93-1.13L67.93-1.13L67.93-1.13Q68.04-1.24 68.04-1.40L68.04-1.40L68.04-2.10L66.50-2.10ZM87.82-4.91L87.82-3.73L77.78-3.73L77.78-4.91L87.82-4.91ZM92.27 0.01L93.76-8.28L95.40-8.28L93.91 0.01L92.27 0.01ZM95.96-8.28L97.61-8.28L99.08 0.01L97.44 0.01L95.96-8.28ZM88.58-2.10L90.12-4.27L90.12-6.76L88.86-6.76L88.86-7.93L90.12-7.93L90.12-8.65L91.76-8.65L91.76-7.93L92.66-7.93L92.66-6.76L91.76-6.76L91.76-5.74L93.14-5.74L91.76-3.79L91.76-1.13L91.76-1.13Q91.76-0.89 91.67-0.68L91.67-0.68L91.67-0.68Q91.58-0.48 91.43-0.33L91.43-0.33L91.43-0.33Q91.28-0.18 91.07-0.09L91.07-0.09L91.07-0.09Q90.86 0 90.64 0L90.64 0L89.10 0L89.56-1.02L89.75-1.02L89.75-1.02Q89.90-1.02 90.01-1.13L90.01-1.13L90.01-1.13Q90.12-1.24 90.12-1.40L90.12-1.40L90.12-2.10L88.58-2.10ZM107.36-3.16L108.91-3.16L109.99-0.06L108.46-0.06L107.36-3.16ZM101.29-0.06L99.76-0.06L100.90-3.16L102.43-3.16L101.29-0.06ZM99.95-3.82L99.95-8.34L100.14-8.34L109.43-8.59L109.43-7.42L101.44-7.20L101.44-4.98L104.63-4.98L104.63-6.78L106.27-6.78L106.27-4.98L109.73-4.98L109.73-3.82L106.27-3.82L106.27-1.20L106.27-1.20Q106.27-0.96 106.18-0.76L106.18-0.76L106.18-0.76Q106.09-0.55 105.94-0.40L105.94-0.40L105.94-0.40Q105.79-0.25 105.58-0.16L105.58-0.16L105.58-0.16Q105.37-0.07 105.14-0.07L105.14-0.07L104.77-0.07L102.94-0.07L103.48-1.07L104.26-1.07L104.26-1.07Q104.41-1.07 104.52-1.18L104.52-1.18L104.52-1.18Q104.63-1.28 104.63-1.44L104.63-1.44L104.63-3.82L101.44-3.82L100.67-3.82L99.95-3.82ZM117.48-1.27L116.22-1.27L116.22-1.54L114.38-1.54L114.38-2.40L114.58-2.40L114.58-7.54L114.38-7.54L114.38-8.41L117.70-8.41L117.70-7.54L117.48-7.54L117.48-1.27ZM115.84-5.53L115.84-4.40L116.22-4.40L116.22-5.53L115.84-5.53ZM116.22-7.54L115.84-7.54L115.84-6.41L116.22-6.41L116.22-7.54ZM115.84-2.40L116.22-2.40L116.22-3.54L115.84-3.54L115.84-2.40ZM110.78-4.10L111.90-4.10L111.82-1.51L111.97-1.46L111.97-4.87L110.65-4.87L110.65-5.80L111.78-5.80L111.78-7.31L110.82-7.31L110.82-8.23L111.78-8.23L111.78-8.65L113.22-8.65L113.22-8.23L114.13-8.23L114.13-7.31L113.22-7.31L113.22-5.80L114.30-5.80L114.30-4.87L113.42-4.87L113.42-3.36L114.22-3.36L114.22-2.44L113.42-2.44L113.42-0.97L121.19-0.97L121.19 0L113.15 0L111.78-0.35L111.77 0L110.65 0L110.78-4.10ZM119.53-2.82L119.53-2.82L119.53-2.82Q118.88-1.96 117.90-1.19L117.90-1.19L117.90-2.89L117.90-2.89Q118.18-3.14 118.39-3.42L118.39-3.42L118.39-3.42Q118.61-3.70 118.79-3.98L118.79-3.98L118.79-3.98Q118.42-4.73 118.23-5.49L118.23-5.49L118.23-5.49Q118.04-6.25 118.02-7.06L118.02-7.06L119.29-7.06L119.29-7.06Q119.32-6.74 119.37-6.41L119.37-6.41L119.37-6.41Q119.42-6.07 119.52-5.72L119.52-5.72L119.52-5.72Q119.64-6.19 119.69-6.65L119.69-6.65L119.69-6.65Q119.74-7.10 119.74-7.52L119.74-7.52L118.02-7.52L118.02-8.41L121.01-8.41L121.01-7.52L121.01-7.52Q121.01-6.58 120.83-5.71L120.83-5.71L120.83-5.71Q120.66-4.84 120.28-4.02L120.28-4.02L120.28-4.02Q120.46-3.72 120.68-3.44L120.68-3.44L120.68-3.44Q120.91-3.16 121.19-2.89L121.19-2.89L121.19-1.19L121.19-1.19Q120.68-1.57 120.28-1.98L120.28-1.98L120.28-1.98Q119.87-2.39 119.53-2.82Z"></path></g></g></g></g></g></g></g><mask id="2b6a2d5974de62dcc579ff7618d091ec"><g fill="white"><rect stroke-width="2" class="i-icon-bg" x="0" y="0" width="130.93000030517578" height="16.320000648498535" fill-opacity="1"></rect>   </g> <g transform="translate(5,3)" fill="black"><g><path transform="translate(-0.264, 8.676)" d="M3.95 0.01L5.44-8.28L7.08-8.28L5.59 0.01L3.95 0.01ZM7.64-8.28L9.29-8.28L10.76 0.01L9.12 0.01L7.64-8.28ZM0.26-2.10L1.80-4.27L1.80-6.76L0.54-6.76L0.54-7.93L1.80-7.93L1.80-8.65L3.44-8.65L3.44-7.93L4.34-7.93L4.34-6.76L3.44-6.76L3.44-5.74L4.82-5.74L3.44-3.79L3.44-1.13L3.44-1.13Q3.44-0.89 3.35-0.68L3.35-0.68L3.35-0.68Q3.26-0.48 3.11-0.33L3.11-0.33L3.11-0.33Q2.96-0.18 2.75-0.09L2.75-0.09L2.75-0.09Q2.54 0 2.32 0L2.32 0L0.78 0L1.24-1.02L1.43-1.02L1.43-1.02Q1.58-1.02 1.69-1.13L1.69-1.13L1.69-1.13Q1.80-1.24 1.80-1.40L1.80-1.40L1.80-2.10L0.26-2.10ZM21.58-4.91L21.58-3.73L11.54-3.73L11.54-4.91L21.58-4.91ZM26.03 0.01L27.52-8.28L29.16-8.28L27.67 0.01L26.03 0.01ZM29.72-8.28L31.37-8.28L32.84 0.01L31.20 0.01L29.72-8.28ZM22.34-2.10L23.88-4.27L23.88-6.76L22.62-6.76L22.62-7.93L23.88-7.93L23.88-8.65L25.52-8.65L25.52-7.93L26.42-7.93L26.42-6.76L25.52-6.76L25.52-5.74L26.90-5.74L25.52-3.79L25.52-1.13L25.52-1.13Q25.52-0.89 25.43-0.68L25.43-0.68L25.43-0.68Q25.34-0.48 25.19-0.33L25.19-0.33L25.19-0.33Q25.04-0.18 24.83-0.09L24.83-0.09L24.83-0.09Q24.62 0 24.40 0L24.40 0L22.86 0L23.32-1.02L23.51-1.02L23.51-1.02Q23.66-1.02 23.77-1.13L23.77-1.13L23.77-1.13Q23.88-1.24 23.88-1.40L23.88-1.40L23.88-2.10L22.34-2.10ZM33.38-7.10L33.38-8.29L34.87-8.29L34.72-8.65L36.67-8.65L36.83-8.29L38.70-8.29L38.70-7.10L33.38-7.10ZM33.38-3.85L35.23-3.85L35.23-4.58L33.38-4.58L33.38-5.77L34.01-5.77L33.58-6.79L35.12-6.79L35.56-5.77L36.54-5.77L36.96-6.79L38.51-6.79L38.08-5.77L38.70-5.77L38.70-4.58L36.86-4.58L36.86-3.85L38.70-3.85L38.70-2.66L36.86-2.66L36.86-1.13L36.86-1.13Q36.86-0.90 36.77-0.70L36.77-0.70L36.77-0.70Q36.68-0.49 36.53-0.34L36.53-0.34L36.53-0.34Q36.38-0.18 36.17-0.09L36.17-0.09L36.17-0.09Q35.96 0 35.74 0L35.74 0L34.68 0L34.99-0.83L35.04-0.83L35.04-0.83Q35.23-0.83 35.23-1.02L35.23-1.02L35.23-2.66L33.38-2.66L33.38-3.85ZM34.64 0L33.37 0L33.62-2.21L34.90-2.21L34.64 0ZM37.44 0L37.19-2.21L38.45-2.21L38.70 0L37.44 0ZM43.91-7.62L40.88-7.45L40.88-6.28L43.91-6.28L43.91-5.26L43.50-5.26L43.50-0.01L41.88-0.01L41.88-5.26L40.88-5.26L40.88-1.02L40.57 0L38.95 0L39.26-1.02L39.26-7.36L39.26-7.93L39.26-8.38L43.91-8.64L43.91-7.62ZM51.89-0.64L50.33-0.64L50.33-1.45L46.63-1.28L46.63-2.15L47.00-2.16L47.00-5.52L46.63-5.52L46.63-6.38L47.00-6.38L48.56-6.38L50.33-6.38L51.89-6.38L52.33-6.38L52.33-5.52L51.89-5.52L51.89-2.39L52.33-2.41L52.33-1.55L51.89-1.52L51.89-0.64ZM48.56-4.15L48.56-3.65L50.33-3.65L50.33-4.15L48.56-4.15ZM50.33-5.52L48.56-5.52L48.56-5.02L50.33-5.02L50.33-5.52ZM48.56-2.23L50.33-2.32L50.33-2.78L48.56-2.78L48.56-2.23ZM46.94-6.95L46.18-8.68L48.14-8.68L48.90-6.95L46.94-6.95ZM54.85-8.47L54.85-1.30L54.85-1.30Q54.85-1.02 54.75-0.78L54.75-0.78L54.75-0.78Q54.65-0.54 54.47-0.36L54.47-0.36L54.47-0.36Q54.29-0.18 54.05-0.08L54.05-0.08L54.05-0.08Q53.81 0.02 53.53 0.02L53.53 0.02L51.97 0.02L52.43-1.01L52.81-1.01L52.81-1.01Q52.97-1.01 53.08-1.12L53.08-1.12L53.08-1.12Q53.20-1.22 53.20-1.39L53.20-1.39L53.20-7.30L49.19-7.30L49.19-8.47L54.85-8.47ZM44.50 0.02L44.50-7.67L46.16-7.67L46.16 0.02L44.50 0.02ZM57.17-1.56L58.62-1.56L58.62-0.17L57.70 1.64L56.96 1.64L57.70 0L57.17 0L57.17-1.56ZM70.19 0.01L71.68-8.28L73.32-8.28L71.83 0.01L70.19 0.01ZM73.88-8.28L75.53-8.28L77.00 0.01L75.36 0.01L73.88-8.28ZM66.50-2.10L68.04-4.27L68.04-6.76L66.78-6.76L66.78-7.93L68.04-7.93L68.04-8.65L69.68-8.65L69.68-7.93L70.58-7.93L70.58-6.76L69.68-6.76L69.68-5.74L71.06-5.74L69.68-3.79L69.68-1.13L69.68-1.13Q69.68-0.89 69.59-0.68L69.59-0.68L69.59-0.68Q69.50-0.48 69.35-0.33L69.35-0.33L69.35-0.33Q69.20-0.18 68.99-0.09L68.99-0.09L68.99-0.09Q68.78 0 68.56 0L68.56 0L67.02 0L67.48-1.02L67.67-1.02L67.67-1.02Q67.82-1.02 67.93-1.13L67.93-1.13L67.93-1.13Q68.04-1.24 68.04-1.40L68.04-1.40L68.04-2.10L66.50-2.10ZM87.82-4.91L87.82-3.73L77.78-3.73L77.78-4.91L87.82-4.91ZM92.27 0.01L93.76-8.28L95.40-8.28L93.91 0.01L92.27 0.01ZM95.96-8.28L97.61-8.28L99.08 0.01L97.44 0.01L95.96-8.28ZM88.58-2.10L90.12-4.27L90.12-6.76L88.86-6.76L88.86-7.93L90.12-7.93L90.12-8.65L91.76-8.65L91.76-7.93L92.66-7.93L92.66-6.76L91.76-6.76L91.76-5.74L93.14-5.74L91.76-3.79L91.76-1.13L91.76-1.13Q91.76-0.89 91.67-0.68L91.67-0.68L91.67-0.68Q91.58-0.48 91.43-0.33L91.43-0.33L91.43-0.33Q91.28-0.18 91.07-0.09L91.07-0.09L91.07-0.09Q90.86 0 90.64 0L90.64 0L89.10 0L89.56-1.02L89.75-1.02L89.75-1.02Q89.90-1.02 90.01-1.13L90.01-1.13L90.01-1.13Q90.12-1.24 90.12-1.40L90.12-1.40L90.12-2.10L88.58-2.10ZM107.36-3.16L108.91-3.16L109.99-0.06L108.46-0.06L107.36-3.16ZM101.29-0.06L99.76-0.06L100.90-3.16L102.43-3.16L101.29-0.06ZM99.95-3.82L99.95-8.34L100.14-8.34L109.43-8.59L109.43-7.42L101.44-7.20L101.44-4.98L104.63-4.98L104.63-6.78L106.27-6.78L106.27-4.98L109.73-4.98L109.73-3.82L106.27-3.82L106.27-1.20L106.27-1.20Q106.27-0.96 106.18-0.76L106.18-0.76L106.18-0.76Q106.09-0.55 105.94-0.40L105.94-0.40L105.94-0.40Q105.79-0.25 105.58-0.16L105.58-0.16L105.58-0.16Q105.37-0.07 105.14-0.07L105.14-0.07L104.77-0.07L102.94-0.07L103.48-1.07L104.26-1.07L104.26-1.07Q104.41-1.07 104.52-1.18L104.52-1.18L104.52-1.18Q104.63-1.28 104.63-1.44L104.63-1.44L104.63-3.82L101.44-3.82L100.67-3.82L99.95-3.82ZM117.48-1.27L116.22-1.27L116.22-1.54L114.38-1.54L114.38-2.40L114.58-2.40L114.58-7.54L114.38-7.54L114.38-8.41L117.70-8.41L117.70-7.54L117.48-7.54L117.48-1.27ZM115.84-5.53L115.84-4.40L116.22-4.40L116.22-5.53L115.84-5.53ZM116.22-7.54L115.84-7.54L115.84-6.41L116.22-6.41L116.22-7.54ZM115.84-2.40L116.22-2.40L116.22-3.54L115.84-3.54L115.84-2.40ZM110.78-4.10L111.90-4.10L111.82-1.51L111.97-1.46L111.97-4.87L110.65-4.87L110.65-5.80L111.78-5.80L111.78-7.31L110.82-7.31L110.82-8.23L111.78-8.23L111.78-8.65L113.22-8.65L113.22-8.23L114.13-8.23L114.13-7.31L113.22-7.31L113.22-5.80L114.30-5.80L114.30-4.87L113.42-4.87L113.42-3.36L114.22-3.36L114.22-2.44L113.42-2.44L113.42-0.97L121.19-0.97L121.19 0L113.15 0L111.78-0.35L111.77 0L110.65 0L110.78-4.10ZM119.53-2.82L119.53-2.82L119.53-2.82Q118.88-1.96 117.90-1.19L117.90-1.19L117.90-2.89L117.90-2.89Q118.18-3.14 118.39-3.42L118.39-3.42L118.39-3.42Q118.61-3.70 118.79-3.98L118.79-3.98L118.79-3.98Q118.42-4.73 118.23-5.49L118.23-5.49L118.23-5.49Q118.04-6.25 118.02-7.06L118.02-7.06L119.29-7.06L119.29-7.06Q119.32-6.74 119.37-6.41L119.37-6.41L119.37-6.41Q119.42-6.07 119.52-5.72L119.52-5.72L119.52-5.72Q119.64-6.19 119.69-6.65L119.69-6.65L119.69-6.65Q119.74-7.10 119.74-7.52L119.74-7.52L118.02-7.52L118.02-8.41L121.01-8.41L121.01-7.52L121.01-7.52Q121.01-6.58 120.83-5.71L120.83-5.71L120.83-5.71Q120.66-4.84 120.28-4.02L120.28-4.02L120.28-4.02Q120.46-3.72 120.68-3.44L120.68-3.44L120.68-3.44Q120.91-3.16 121.19-2.89L121.19-2.89L121.19-1.19L121.19-1.19Q120.68-1.57 120.28-1.98L120.28-1.98L120.28-1.98Q119.87-2.39 119.53-2.82Z"></path></g></g></mask>
</svg>